<svg width="18" height="19" viewBox="0 0 18 19" fill="none" xmlns="http://www.w3.org/2000/svg">
<path d="M6.6825 16.0024C6.54 16.0024 6.3975 15.9499 6.285 15.8374C6.0675 15.6199 5.78244 15.2174 5.99994 14.9999L10.9999 9.99988C11.3599 9.63988 11.3599 9.35988 10.9999 8.99988L5.99994 3.99988C5.78244 3.78238 6.0675 3.37989 6.285 3.16239C6.5025 2.94489 6.8625 2.94489 7.08 3.16239L11.97 8.05239C12.3525 8.43489 12.57 8.95239 12.57 9.49989C12.57 10.0474 12.36 10.5649 11.97 10.9474L7.08 15.8374C6.9675 15.9424 6.825 16.0024 6.6825 16.0024Z" fill="white"/>
</svg>
